<svg xmlns="http://www.w3.org/2000/svg" viewBox="0 0 512 512" width="512" height="512">
  <defs>
    <linearGradient id="bg" x1="0" y1="0" x2="1" y2="1">
      <stop offset="0%" stop-color="#FFF2E0"/>
      <stop offset="100%" stop-color="#FFD4B0"/>
    </linearGradient>
  </defs>
  <rect width="512" height="512" rx="100" fill="url(#bg)"/>
  <!-- House -->
  <rect x="176" y="260" width="160" height="130" rx="8" fill="#F5E6D3" stroke="#D4C0A8" stroke-width="4"/>
  <!-- Roof -->
  <polygon points="156,264 256,190 356,264" fill="#C06040" stroke="#A04830" stroke-width="4"/>
  <!-- Door -->
  <rect x="236" y="322" width="40" height="65" rx="20" fill="#8B5A3C"/>
  <circle cx="266" cy="355" r="5" fill="#C8A040"/>
  <!-- Windows -->
  <rect x="196" y="285" width="32" height="36" rx="6" fill="#FFE4A0" stroke="#5C3D2E" stroke-width="2"/>
  <line x1="212" y1="287" x2="212" y2="319" stroke="#5C3D2E" stroke-width="1.5"/>
  <line x1="198" y1="303" x2="226" y2="303" stroke="#5C3D2E" stroke-width="1.5"/>
  <rect x="284" y="285" width="32" height="36" rx="6" fill="#FFE4A0" stroke="#5C3D2E" stroke-width="2"/>
  <line x1="300" y1="287" x2="300" y2="319" stroke="#5C3D2E" stroke-width="1.5"/>
  <line x1="286" y1="303" x2="314" y2="303" stroke="#5C3D2E" stroke-width="1.5"/>
  <!-- Heart above -->
  <path d="M256 155 C256 155 224 130 224 155 C224 172 256 190 256 190 C256 190 288 172 288 155 C288 130 256 155 256 155Z" fill="#E05050" opacity="0.8"/>
  <!-- Cookie at bottom -->
  <ellipse cx="320" cy="380" rx="40" ry="32" fill="#D4A050"/>
  <ellipse cx="316" cy="372" rx="16" ry="10" fill="rgba(255,255,255,0.15)"/>
  <path d="M295 380 Q320 368 345 380" fill="none" stroke="#B87830" stroke-width="2"/>
</svg>
